<?xml version="1.0" encoding="utf-8"?>
<!-- Generator: Adobe Illustrator 28.1.0, SVG Export Plug-In . SVG Version: 6.00 Build 0)  -->
<svg version="1.1" id="Layer_1" xmlns="http://www.w3.org/2000/svg" xmlns:xlink="http://www.w3.org/1999/xlink" x="0px" y="0px"
	 viewBox="0 0 400 254" style="enable-background:new 0 0 400 254;" xml:space="preserve">
<style type="text/css">
	.st0{fill:#FFFFFF;}
</style>
<g>
	<g>
		<path class="st0" d="M12.8,168.2c0,1.7,0.7,3.2,2.2,4.5c1.4,1.3,3.3,2.4,5.5,3.4c2.2,1,4.6,2,7.1,3c2.5,1,4.9,2,7.1,3.2
			c2.2,1.2,4,2.6,5.5,4.2c1.5,1.6,2.2,3.6,2.2,5.9c0,2.4-0.6,4.4-1.8,6c-1.2,1.7-2.8,3-4.8,4c-2,1-4.2,1.8-6.8,2.2
			c-2.5,0.4-5.1,0.7-7.8,0.7c-2.8,0-5.5-0.2-8.1-0.6c-2.6-0.4-5-1-7.2-1.7v-7.9c0.8,1.3,1.8,2.5,3.1,3.6c1.3,1,2.8,1.9,4.4,2.7
			c1.6,0.7,3.3,1.3,5.1,1.7c1.8,0.4,3.6,0.6,5.3,0.6c1.7,0,3.3-0.2,4.9-0.6c1.5-0.4,2.9-1,4.1-1.8c1.2-0.8,2.1-1.9,2.8-3.1
			c0.7-1.2,1-2.7,1-4.5c0-2-0.7-3.7-2.2-5.1c-1.5-1.4-3.3-2.6-5.5-3.6c-2.2-1.1-4.6-2.1-7.1-3c-2.5-0.9-4.9-1.9-7.1-3
			c-2.2-1.1-4-2.4-5.5-4c-1.5-1.5-2.2-3.4-2.2-5.6c0-2.4,0.5-4.4,1.6-6c1.1-1.7,2.5-3,4.3-4c1.8-1,3.8-1.8,6.1-2.2
			c2.3-0.4,4.7-0.7,7.2-0.7c2.5,0,5.1,0.2,7.6,0.6c2.5,0.4,4.9,1,7.1,1.7v7.9c-0.8-1.3-1.8-2.6-3.1-3.7c-1.3-1.1-2.6-2-4.2-2.8
			c-1.5-0.8-3.1-1.4-4.8-1.8s-3.3-0.6-5-0.6c-1.5,0-2.9,0.2-4.3,0.6c-1.3,0.4-2.5,1-3.5,1.8c-1,0.8-1.8,1.9-2.4,3.2
			S12.8,166.4,12.8,168.2"/>
		<path class="st0" d="M82.4,187.7l-9.9-22l-9.8,22H82.4z M96.2,204.3h-6.3L83,189H62.1l-0.3,0.7c-1.1,2.5-1.7,4.9-1.9,7.2
			c-0.1,2.3,0.5,4.8,1.8,7.3h-7.6l17.6-40.1l-3-6.6h5.9L96.2,204.3z"/>
		<path class="st0" d="M131.3,157.5c5,0,8.7,1.2,11.2,3.5c2.5,2.3,3.7,5.5,3.7,9.6c0,1.7-0.4,3.5-1.3,5.5c-0.9,2-2.2,4-3.9,5.8
			c-1.7,1.8-3.9,3.4-6.5,4.7c-2.6,1.3-5.6,2.1-9.1,2.3c2.5-0.8,4.6-2,6.5-3.4c1.9-1.4,3.5-3,4.8-4.7c1.3-1.7,2.3-3.5,2.9-5.5
			c0.7-1.9,1-3.8,1-5.6c0-3.4-1-6.1-2.9-8c-1.9-2-4.7-3-8.1-3H116v45.5h-5.5v-46.8H131.3z"/>
		<path class="st0" d="M182.6,157.5c5,0,8.7,1.2,11.2,3.5c2.5,2.3,3.7,5.5,3.7,9.6c0,1.7-0.4,3.5-1.3,5.5c-0.9,2-2.2,4-3.9,5.8
			c-1.7,1.8-3.9,3.4-6.5,4.7c-2.6,1.3-5.6,2.1-9.1,2.3c2.5-0.8,4.6-2,6.5-3.4c1.9-1.4,3.5-3,4.8-4.7c1.3-1.7,2.3-3.5,2.9-5.5
			c0.7-1.9,1-3.8,1-5.6c0-3.4-1-6.1-2.9-8c-1.9-2-4.7-3-8.1-3h-13.7v45.5h-5.5v-46.8H182.6z"/>
	</g>
	<polygon class="st0" points="254.1,157.5 254.1,204.3 248.6,204.3 248.6,181.5 218.6,181.5 218.6,204.3 213.1,204.3 213.1,157.5 
		218.6,157.5 218.6,180.3 248.6,180.3 248.6,157.5 	"/>
	<rect x="272.7" y="157.5" class="st0" width="5.5" height="46.8"/>
	<g>
		<path class="st0" d="M336.3,204.3h-6.5l-9-9.7c-0.8-0.8-1.7-1.8-2.7-2.7c-1-1-2.1-1.9-3.2-2.9c-1.1-0.9-2.3-1.8-3.5-2.5
			c-1.2-0.7-2.3-1.2-3.4-1.5h5.7c2.8,0,5.2-0.4,7-1.2c1.9-0.8,3.4-1.8,4.5-3.1c1.1-1.2,1.9-2.7,2.4-4.2c0.5-1.6,0.7-3.1,0.7-4.6
			c0-1.5-0.2-3-0.6-4.6c-0.4-1.5-1.2-2.9-2.3-4.2c-1.1-1.2-2.6-2.3-4.5-3.1c-1.9-0.8-4.3-1.2-7.2-1.2h-11.3v45.5h-5.5v-46.8h16.8
			c3.3,0,6.2,0.4,8.8,1.1c2.5,0.8,4.7,1.8,6.4,3.1c1.7,1.3,3.1,2.8,4,4.6c0.9,1.7,1.4,3.6,1.4,5.6c0,1.7-0.3,3.3-1,4.9
			c-0.7,1.5-1.7,2.9-3,4.2c-1.3,1.3-3,2.3-5,3.1c-2,0.8-4.3,1.5-6.9,1.8L336.3,204.3z"/>
		<path class="st0" d="M373,203c1.2,0,2.5,0,3.7-0.1c1.2-0.1,2.4-0.3,3.5-0.7c1.2-0.4,2.3-0.9,3.5-1.5c1.2-0.7,2.4-1.6,3.7-2.7v6.3
			h-35.9v-46.8h35.1v6.3c-1.2-1.2-2.5-2.1-3.7-2.7c-1.2-0.6-2.4-1.1-3.6-1.5c-1.2-0.4-2.4-0.6-3.6-0.7c-1.2-0.1-2.4-0.1-3.7-0.1
			h-15.1v22h7.6c0.7,0,1.5,0,2.4-0.1c0.9,0,1.9-0.2,2.9-0.3c1-0.2,2.2-0.5,3.3-0.9c1.2-0.4,2.4-1,3.7-1.7v7.2
			c-1.3-0.7-2.5-1.3-3.7-1.7c-1.2-0.4-2.3-0.7-3.3-0.9c-1-0.2-2-0.3-2.9-0.3c-0.9,0-1.7-0.1-2.4-0.1h-7.6v21H373z"/>
		<path class="st0" d="M181.5,120.8c0.2,0,0.4,0,0.4,0.4l0,1.7c-0.1,0-0.2,0.1-0.2,0c-0.7-0.6-1.7-1.3-2.8-1.3h-2.3v10.2
			c0,1.8,0.2,2.5,0.5,2.8c0.1,0.1,0.1,0.2-0.1,0.2h-2.9c-0.2,0-0.2-0.1-0.1-0.2c0.3-0.4,0.5-1.1,0.5-2.8v-10.2h-2.3
			c-1.1,0-2.1,0.7-2.8,1.3c-0.1,0.1-0.2,0-0.2,0l0-1.7c0-0.4,0.2-0.4,0.4-0.4H181.5z"/>
		<path class="st0" d="M197.7,127.2h7.1v-3.4c0-1.5-0.1-2.5-0.4-2.8c-0.1-0.1-0.1-0.2,0.1-0.2h2.7c0.2,0,0.2,0.1,0.1,0.2
			c-0.3,0.4-0.4,1.4-0.4,2.8v7.9c0,1.5,0.1,2.5,0.4,2.8c0.1,0.1,0.1,0.2-0.1,0.2h-2.7c-0.2,0-0.2-0.1-0.1-0.2
			c0.3-0.4,0.4-1.4,0.4-2.8v-3.7h-7.1v3.7c0,1.5,0.1,2.5,0.4,2.8c0.1,0.1,0.1,0.2-0.1,0.2h-2.7c-0.2,0-0.2-0.1-0.1-0.2
			c0.3-0.4,0.4-1.4,0.4-2.8v-7.9c0-1.5-0.2-2.5-0.4-2.8c-0.1-0.1-0.1-0.2,0.1-0.2h2.7c0.2,0,0.2,0.1,0.1,0.2
			c-0.3,0.4-0.4,1.4-0.4,2.8V127.2z"/>
		<path class="st0" d="M229.5,120.8c0.4,0,0.4,0,0.4,0.4l0,1.5c0,0-0.2,0.1-0.3,0c-0.5-0.6-1.6-1.1-2.7-1.1h-2.7v5.7h2.7
			c0.9,0,1.8-0.4,2.1-0.5c0.1,0,0.1,0,0.1,0v1.6c0,0,0,0-0.1,0c-0.3,0-1-0.5-2.1-0.5h-2.7v5.1c0,0.7,0,0.7,0.6,0.7h2
			c1.7,0,3-1,3.4-1.5c0.2-0.1,0.4-0.1,0.4,0l-0.5,1.9c-0.1,0.4-0.4,0.4-0.4,0.4h-7.9c-0.2,0-0.2-0.1-0.1-0.2
			c0.3-0.4,0.4-1.4,0.4-2.8v-7.9c0-1.5-0.2-2.5-0.4-2.8c-0.1-0.1-0.1-0.2,0.1-0.2H229.5z"/>
	</g>
	<rect x="239" y="134.8" class="st0" width="155.1" height="0.4"/>
	<rect x="7.3" y="134.8" class="st0" width="156.1" height="0.4"/>
	<g>
		<path class="st0" d="M229.1,35.9c-1.3-5.6-5.6-9.1-11.8-9.1c-18.8,0-30.1,0-49.2,0v11.5c1.2,0,30.3,0,47.4,0
			c8.4,0,12.3,3.1,13.6,10.7V35.9z"/>
		<path class="st0" d="M229.1,79.5c-1.3-5.6-5.6-9.1-11.8-9.1c-18.8,0-30.1,0-49.2,0V82c1.2,0,30.3,0,47.4,0
			c8.4,0,12.3,3.1,13.6,10.7V79.5z"/>
		<path class="st0" d="M235,18.8c-1.3-6-5.5-9.2-12.2-9.2c-17.7,0-29,0-46.7,0l0.2,11.3c17,0,27.5,0,44.5,0c9,0,12.9,2.9,14.3,10.9
			V18.8z"/>
		<path class="st0" d="M235,58.2c-1.3-5.6-5.7-9.1-11.7-9.2l-65.1,0.2v11.4c6.7,0,56.1,0,62.7,0c1.8,0,3.7-0.1,5.5,0.3
			c4.7,1,7.7,4.5,8.7,9.5V58.2z"/>
		<path class="st0" d="M100.5,241.9c0-1.3-1.1-1.6-2.4-2.1c-1.5-0.6-2.7-1.4-2.7-3c0-1.7,1.3-2.7,3.4-2.7c1.3,0,2,0.2,2.5,0.4
			c0.3,0.1,0.3,0.2,0.2,0.5l-0.1,0.7c-0.1,0.1-0.2,0.1-0.2,0c-0.5-0.7-1.4-1.1-2.4-1.1c-1.3,0-2,0.6-2,1.7c0,1.2,0.8,1.6,2,2
			c1.8,0.6,3,1.3,3,3c0,2.1-1.7,3-3.7,3c-1.2,0-2.1-0.2-2.6-0.4c-0.3-0.1-0.3-0.2-0.3-0.5l0-0.9c0.1-0.1,0.2,0,0.3,0
			c0.5,0.7,1.4,1.3,2.6,1.3C99.7,243.8,100.5,243.1,100.5,241.9"/>
		<path class="st0" d="M109.7,238.9h5v-2.4c0-1-0.1-1.8-0.3-2c0-0.1,0-0.1,0.1-0.1h1.9c0.1,0,0.1,0.1,0.1,0.1c-0.2,0.3-0.3,1-0.3,2
			v5.6c0,1,0.1,1.8,0.3,2c0,0.1,0,0.1-0.1,0.1h-1.9c-0.1,0-0.1-0.1-0.1-0.1c0.2-0.3,0.3-1,0.3-2v-2.6h-5v2.6c0,1,0.1,1.8,0.3,2
			c0,0.1,0,0.1-0.1,0.1H108c-0.1,0-0.1-0.1-0.1-0.1c0.2-0.3,0.3-1,0.3-2v-5.6c0-1-0.1-1.8-0.3-2c0-0.1,0-0.1,0.1-0.1h1.9
			c0.1,0,0.1,0.1,0.1,0.1c-0.2,0.3-0.3,1-0.3,2V238.9z"/>
		<path class="st0" d="M128.5,234.3c0.3,0,0.3,0,0.3,0.3l0,1c0,0-0.1,0-0.2,0c-0.3-0.4-1.2-0.8-1.9-0.8h-1.9v4.1h1.9
			c0.7,0,1.3-0.3,1.5-0.3c0,0,0.1,0,0.1,0v1.2c0,0,0,0-0.1,0c-0.2,0-0.7-0.3-1.5-0.3h-1.9v3.6c0,0.5,0,0.5,0.5,0.5h1.4
			c1.2,0,2.1-0.7,2.4-1.1c0.1-0.1,0.3-0.1,0.3,0l-0.4,1.4c-0.1,0.3-0.3,0.3-0.3,0.3h-5.6c-0.1,0-0.1-0.1-0.1-0.1
			c0.2-0.3,0.3-1,0.3-2v-5.6c0-1.1-0.1-1.8-0.3-2c0-0.1,0-0.1,0.1-0.1H128.5z"/>
		<path class="st0" d="M136.8,242.1c0,1,0.1,1.8,0.3,2c0,0.1,0,0.1-0.1,0.1h-2c-0.1,0-0.1-0.1-0.1-0.1c0.2-0.3,0.3-1,0.3-2v-5.6
			c0-1.1-0.1-1.8-0.3-2c0-0.1,0-0.1,0.1-0.1h2c0.1,0,0.1,0.1,0.1,0.1c-0.2,0.3-0.3,1-0.3,2V242.1z"/>
		<path class="st0" d="M150.1,243.8c-0.7-0.4-1.5-1.2-2.1-2.1c-0.5-0.7-0.9-1.4-1.5-2.3h-1.1v2.6c0,1,0.1,1.8,0.3,2
			c0,0.1,0,0.1-0.1,0.1h-1.9c-0.1,0-0.1-0.1-0.1-0.1c0.2-0.3,0.3-1,0.3-2v-5.6c0-1-0.1-1.8-0.3-2c0-0.1,0-0.1,0.1-0.1h1.9
			c0.1,0,0.1,0.1,0.1,0.1c-0.2,0.3-0.3,1-0.3,2v2.4h1l2.4-3.1c0.5-0.7,0.8-1.1,0.8-1.4c0-0.1,0-0.1,0.1-0.1h1.7c0.1,0,0.1,0.1,0,0.1
			c-0.4,0.2-1.2,0.7-2.1,1.9l-1.7,2.2c0.6,0.9,1,1.5,1.5,2.3c1.5,2.2,2.2,2.8,3,3.3c0.1,0.1,0.1,0.1,0,0.2c-0.1,0-0.3,0-0.5,0
			C151.2,244.2,150.6,244.2,150.1,243.8"/>
		<path class="st0" d="M159.2,238.9h5v-2.4c0-1-0.1-1.8-0.3-2c0-0.1,0-0.1,0.1-0.1h1.9c0.1,0,0.1,0.1,0.1,0.1c-0.2,0.3-0.3,1-0.3,2
			v5.6c0,1,0.1,1.8,0.3,2c0,0.1,0,0.1-0.1,0.1H164c-0.1,0-0.1-0.1-0.1-0.1c0.2-0.3,0.3-1,0.3-2v-2.6h-5v2.6c0,1,0.1,1.8,0.3,2
			c0,0.1,0,0.1-0.1,0.1h-1.9c-0.1,0-0.1-0.1-0.1-0.1c0.2-0.3,0.3-1,0.3-2v-5.6c0-1-0.1-1.8-0.3-2c0-0.1,0-0.1,0.1-0.1h1.9
			c0.1,0,0.1,0.1,0.1,0.1c-0.2,0.3-0.3,1-0.3,2V238.9z"/>
		<path class="st0" d="M186.7,234.3c0.1,0.1,0.1,0.3,0,0.4l-6,9h3.3c1.2,0,2.2-0.7,2.8-1.1c0.1-0.1,0.3-0.1,0.2,0l-0.4,1.4
			c-0.1,0.3-0.2,0.3-0.3,0.3h-7.6c-0.1,0-0.1-0.2,0-0.3l6.1-9.1h-2.6c-1.3,0-2.1,0.3-2.8,0.8c-0.1,0.1-0.3,0.1-0.2,0l0.1-1
			c0-0.3,0.1-0.3,0.3-0.3H186.7z"/>
		<path class="st0" d="M194.4,240.1h3l-1.4-3.8L194.4,240.1z M193.1,244.2h-1.5c-0.1,0-0.1-0.1,0-0.1c0.3-0.3,0.7-1,1.3-2.3l3.3-7.5
			h0.7l2.8,7.4c0.4,1,0.8,1.9,1.2,2.4c0,0.1,0,0.2-0.1,0.2h-1.9c-0.2,0-0.2,0-0.2-0.2c0-0.4-0.2-1.3-0.7-2.4l-0.4-1h-3.4l-0.4,1.1
			c-0.5,1.2-0.6,2.1-0.5,2.3C193.2,244.2,193.2,244.2,193.1,244.2"/>
		<path class="st0" d="M209.8,244.2h-2.1c-0.1,0-0.1-0.1-0.1-0.1c0.2-0.3,0.3-0.8,0.3-2v-1.9l-2.2-3.8c-0.7-1.1-1-1.6-1.4-1.9
			c0,0-0.1-0.1,0.1-0.1h2.1c0.1,0,0.1,0,0.1,0.1c0,0.5,0.3,0.9,0.8,1.8l1.7,3.1l1.6-3c0.6-1.1,0.7-1.6,0.6-1.9c0-0.1,0-0.1,0.1-0.1
			h1.6c0.1,0,0.1,0.1,0,0.1c-0.3,0.3-0.8,0.7-1.4,1.9l-2.3,3.8v2c0,1.3,0.2,1.8,0.3,2C210,244.2,210,244.2,209.8,244.2"/>
		<path class="st0" d="M224.1,234.3c0.3,0,0.3,0,0.3,0.3l0,1c0,0-0.1,0-0.2,0c-0.3-0.4-1.2-0.8-1.9-0.8h-1.9v4.1h1.9
			c0.7,0,1.3-0.3,1.5-0.3c0,0,0.1,0,0.1,0v1.2c0,0,0,0-0.1,0c-0.2,0-0.7-0.3-1.5-0.3h-1.9v3.6c0,0.5,0,0.5,0.5,0.5h1.4
			c1.2,0,2.1-0.7,2.4-1.1c0.1-0.1,0.3-0.1,0.3,0l-0.4,1.4c-0.1,0.3-0.3,0.3-0.3,0.3h-5.6c-0.1,0-0.1-0.1-0.1-0.1
			c0.2-0.3,0.3-1,0.3-2v-5.6c0-1.1-0.1-1.8-0.3-2c0-0.1,0-0.1,0.1-0.1H224.1z"/>
		<path class="st0" d="M232.8,243.6h1.6c2.4,0,3.3-2.1,3.3-4.6c0-2.1-0.9-4.2-3.3-4.2h-1.9v8.3C232.4,243.5,232.4,243.6,232.8,243.6
			 M230.6,244.1c0.2-0.3,0.3-1,0.3-2v-5.6c0-1.1-0.1-1.8-0.3-2c0-0.1,0-0.1,0.1-0.1h3.8c3.4,0,5,2.2,5,4.7c0,2.8-1.6,5.2-5,5.2h-3.8
			C230.5,244.2,230.5,244.2,230.6,244.1"/>
		<path class="st0" d="M254.4,239.4c0.3,0,0.8,0.1,1.4,0c1.1,0,2-0.5,2-2.4c0-1.8-1.1-2.1-2-2.1h-1.4V239.4z M260.6,244.3
			c-0.4,0-1-0.1-1.5-0.4c-0.8-0.4-1.5-1.3-2-1.9c-0.5-0.7-0.9-1.4-1.3-2c-0.4,0-1.1,0-1.5,0v2.1c0,1,0.1,1.8,0.3,2
			c0,0.1,0,0.1-0.1,0.1h-1.9c-0.1,0-0.1-0.1-0.1-0.1c0.2-0.3,0.3-1,0.3-2v-5.6c0-1.1-0.1-1.8-0.3-2c0-0.1,0-0.1,0.1-0.1h3.3
			c1.1,0,3.5,0.3,3.5,2.6c0,1.7-1.4,2.4-2.1,2.6c0.3,0.5,0.8,1.2,1.4,2.1c1.2,1.5,1.8,2.1,2.4,2.4c0.1,0.1,0.1,0.1,0,0.2
			C261.1,244.3,260.8,244.3,260.6,244.3"/>
		<path class="st0" d="M273.4,239.3c0-2.5-0.9-4.6-3.2-4.6c-2.3,0-3.2,2.1-3.2,4.6c0,2.5,0.9,4.6,3.2,4.6
			C272.5,243.8,273.4,241.7,273.4,239.3 M265.2,239.3c0-3.1,2-5.2,5-5.2c3,0,5,2.1,5,5.2c0,3.1-2,5.2-5,5.2
			C267.2,244.4,265.2,242.4,265.2,239.3"/>
		<path class="st0" d="M282.6,240.1h3l-1.4-3.8L282.6,240.1z M281.3,244.2h-1.5c-0.1,0-0.1-0.1,0-0.1c0.3-0.3,0.7-1,1.3-2.3l3.3-7.5
			h0.7l2.8,7.4c0.4,1,0.8,1.9,1.2,2.4c0,0.1,0,0.2-0.1,0.2H287c-0.2,0-0.2,0-0.2-0.2c0-0.4-0.2-1.3-0.7-2.4l-0.4-1h-3.4l-0.4,1.1
			c-0.5,1.2-0.6,2.1-0.5,2.3C281.4,244.2,281.4,244.2,281.3,244.2"/>
		<path class="st0" d="M296.6,243.6h1.6c2.4,0,3.3-2.1,3.3-4.6c0-2.1-0.9-4.2-3.3-4.2h-1.9v8.3C296.2,243.5,296.3,243.6,296.6,243.6
			 M294.4,244.1c0.2-0.3,0.3-1,0.3-2v-5.6c0-1.1-0.1-1.8-0.3-2c0-0.1,0-0.1,0.1-0.1h3.8c3.4,0,5,2.2,5,4.7c0,2.8-1.6,5.2-5,5.2h-3.8
			C294.4,244.2,294.4,244.2,294.4,244.1"/>
	</g>
</g>
</svg>
